<?xml version="1.0" encoding="utf-8"?>
<!-- Generator: Adobe Illustrator 28.0.0, SVG Export Plug-In . SVG Version: 6.00 Build 0)  -->
<svg version="1.1" id="Layer_1" xmlns="http://www.w3.org/2000/svg" xmlns:xlink="http://www.w3.org/1999/xlink" x="0px" y="0px"
	 viewBox="0 0 56 32" style="enable-background:new 0 0 56 32;" xml:space="preserve">
<style type="text/css">
	.st0{fill:#414042;stroke:#414042;stroke-miterlimit:10;}
	.st1{fill:#1C75BC;stroke:#1C75BC;stroke-miterlimit:10;}
	.st2{fill:#BE1E2D;stroke:#000000;stroke-miterlimit:10;}
</style>
<rect x="17.56" y="22.63" class="st0" width="20.88" height="8.92"/>
<polyline class="st0" points="38.69,22.63 43.64,22.63 48.58,17.68 45.78,10.76 52.47,16.39 48.58,31.55 48.33,31.55 38.44,31.55 
	"/>
<polyline class="st0" points="17.14,22.63 12.19,22.63 7.25,17.68 10.05,10.76 3.36,16.39 7.25,31.55 7.5,31.55 17.39,31.55 "/>
<polygon class="st0" points="38.32,22.63 17.68,22.63 28,5.23 "/>
<polygon class="st1" points="23.79,20.84 27.03,14.45 27.03,20.84 "/>
<polygon class="st1" points="32.48,20.84 29.24,14.45 29.24,20.84 "/>
<polyline class="st2" points="11.63,32 11.63,29.43 18.22,29.43 18.22,32 "/>
<polyline class="st2" points="37.94,32 37.94,29.43 44.53,29.43 44.53,32 "/>
</svg>
