<?xml version="1.0" encoding="utf-8"?>
<!-- Generator: Adobe Illustrator 28.0.0, SVG Export Plug-In . SVG Version: 6.00 Build 0)  -->
<svg version="1.1" id="Layer_1" xmlns="http://www.w3.org/2000/svg" xmlns:xlink="http://www.w3.org/1999/xlink" x="0px" y="0px"
	 viewBox="0 0 21 17" style="enable-background:new 0 0 21 17;" xml:space="preserve">
<style type="text/css">
	.st0{fill:#CF2027;}
</style>
<g>
	<polyline class="st0" points="14.51,0.5 14.51,2.5 16.5,2.5 16.5,0.5 	"/>
	<polyline class="st0" points="12.51,2.5 12.51,4.51 14.51,4.51 14.51,2.5 	"/>
	<polyline class="st0" points="4.51,0.5 4.51,2.5 6.5,2.5 6.5,0.5 	"/>
	<polyline class="st0" points="6.5,2.5 6.5,4.51 8.5,4.51 8.5,2.5 	"/>
	<polyline class="st0" points="4.51,8.5 4.51,12.49 16.5,12.49 16.5,8.5 	"/>
	<polyline class="st0" points="4.5,4.51 4.5,6.5 16.5,6.5 16.5,4.51 	"/>
	<polyline class="st0" points="2.5,6.5 2.5,8.49 6.5,8.49 6.5,6.5 	"/>
	<polyline class="st0" points="8.5,6.5 8.5,8.49 12.5,8.49 12.5,6.5 	"/>
	<polyline class="st0" points="14.5,6.5 14.5,8.49 18.5,8.49 18.5,6.5 	"/>
	<polyline class="st0" points="0.5,8.49 0.5,10.49 4.65,10.49 4.65,8.49 	"/>
	<polyline class="st0" points="16.5,8.49 16.5,10.49 20.5,10.49 20.5,8.49 	"/>
	<polyline class="st0" points="9.81,8.15 9.81,10.15 11.8,10.15 11.8,8.15 	"/>
	<polyline class="st0" points="4.51,12.24 4.51,14.5 6.5,14.5 6.5,12.24 	"/>
	<polyline class="st0" points="14.51,12.24 14.51,14.5 16.5,14.5 16.5,12.24 	"/>
	<polyline class="st0" points="18.5,10.49 18.5,14.5 20.5,14.5 20.5,10.49 	"/>
	<polyline class="st0" points="6.5,14.5 6.5,16.49 9.5,16.49 9.5,14.5 	"/>
	<polyline class="st0" points="11.5,14.5 11.5,16.49 14.51,16.49 14.51,14.5 	"/>
	<polyline class="st0" points="0.5,10.49 0.5,14.5 2.5,14.5 2.5,10.49 	"/>
</g>
</svg>
